<svg width="104" height="104" viewBox="0 0 104 104" fill="none" xmlns="http://www.w3.org/2000/svg">
    <path
        d="M31 14.5C31 7.59644 36.5964 2 43.5 2H74.75C88.5571 2 99.75 13.1929 99.75 27V27H43.5C36.5964 27 31 21.4036 31 14.5V14.5Z"
        fill="#2B59FF" />
    <path
        d="M31 89.5C31 82.5964 36.5964 77 43.5 77H65.375V84.8125C65.375 94.3049 57.6799 102 48.1875 102H43.5C36.5964 102 31 96.4036 31 89.5V89.5Z"
        fill="#2B59FF" />
    <path
        d="M6 64.5C6 50.6929 17.1929 39.5 31 39.5H99.75V39.5C99.75 53.3071 88.5571 64.5 74.75 64.5H6V64.5Z"
        fill="#2B59FF" />
</svg>
    