<svg width="30" height="32" viewBox="0 0 30 32" fill="none" xmlns="http://www.w3.org/2000/svg" class="header-logo-icon" data-astro-cid-3ef6ksr2=""> <path d="M8 4C8 1.79086 9.79086 0 12 0H22C26.4183 0 30 3.58172 30 8V8H12C9.79086 8 8 6.20914 8 4V4Z" fill="currentColor" data-astro-cid-3ef6ksr2=""></path> <path d="M8 28C8 25.7909 9.79086 24 12 24H19V26.5C19 29.5376 16.5376 32 13.5 32H12C9.79086 32 8 30.2091 8 28V28Z" fill="currentColor" data-astro-cid-3ef6ksr2=""></path> <path d="M0 20C0 15.5817 3.58172 12 8 12H30V12C30 16.4183 26.4183 20 22 20H0V20Z" fill="currentColor" data-astro-cid-3ef6ksr2=""></path> </svg>
